<svg id="Daytona_2008_Moto_-_Config" data-name="Daytona 2008 Moto - Config" xmlns="http://www.w3.org/2000/svg" version="1.1" viewBox="0 0 1920 1080">
  <defs>
    <style>
      .cls-1 {
        fill: #fff;
        stroke-width: 0px;
      }
    </style>
  </defs>
  <path class="cls-1" d="M1673,354.2c-25.6-20.2-52.8-3.9-67.3,4.9-1.9,1.2-3.8,2.3-5.3,3.1-21.5,11.9-26.9,13.1-44.1,10-24.9-4.6-30.4-35-31.2-41.1-5.4-38.9,9.4-71.9,22.8-92.8,15.6-24.3,17.9-48.3,6.1-64.1-4-5.4-12.7-16.3-17.9-21.8-18.5-19.6-32.7-27.2-44.5-32.8-20.9-9.9-53.9-25.2-83.1-38.8-18.4-8.5-35.8-16.6-48.4-22.6-18.5-8.7-45.2-8.8-47-8.8-49.9-.5-89.5-1.1-127.7-1.6-87.5-1.2-163-2.2-323.4-2.6-.5,0-1.1,0-1.7,0-12.2-.1-40.6-.4-58.7,24-13.8,15.7-22.6,19.4-30.1,21.1-9.7,2.2-38.9,5.3-49.5,6.3-26.6,1.7-34-6.1-39.9-14.9-23.7-36-48.7-37-66.9-37.7h-2.2c-42-1.9-168.6-2.3-169.9-2.3h-.3s-.3,0-.3,0c-119.9,6.7-194.6,45.6-228.4,68.3-51,34.1-90.1,77.6-116.4,129.5-25,49.2-31.9,94.1-33.8,116.4-7.7,91.7,17.2,174,74,244.6,51.7,64.2,119,104.8,166.3,127.6,64.6,31,164.5,71.5,244.8,104.1,34.9,14.1,67.9,27.5,93.4,38.2,124.3,52.3,235,79.1,329.2,79.9,1.1,0,2.1,0,3.2,0,51.9,0,115.2-10.1,183.4-29.3,63.1-17.8,128.9-42.7,190.2-72.1,28.5-13.7,53.8-43.8,64.3-76.8,7.9-24.8,6.6-48.7-3.8-67.5-20.2-36.6-66.2-55.1-136.9-55.2-14.3,0-26.7,0-54.4-23-16.6-13.8-29.9-20.2-80.1-19.9-61.2.4-147.9-.7-190.6-4.7-9.8-.9-34.6-10.6-34.6-27.9s0-24.6,47.6-36.4c34.4-8.5,63.3-10.3,144.7-11.7,37.6-.7,136-1.9,237.1,1.8,2.7,0,6,.2,9.7.3,10.6.3,25.1.7,32.4,1.4,27.3,2.6,29.4,11.6,30.9,18.2,2.8,12.1,7.8,31.7,12.9,46.9,4.4,13.2,15.5,26.8,23.3,28.4,32.3,6.7,69.3-20.7,87.1-33.9l.9-.7c24.1-17.9,62.1-50.6,89.5-83.9,23.5-28.6,33.9-51.8,42.3-70.4.8-1.8,1.6-3.6,2.4-5.3,21.6-47.6,9.3-66.9,0-74.2ZM1654.7,420.1c-.8,1.8-1.6,3.5-2.4,5.4-8.3,18.5-17.7,39.4-39.5,65.9-26.3,31.9-62.7,63.3-85.9,80.5l-.9.7c-13.9,10.3-46.1,34.2-69.5,30.7-2.2-2-7.5-7.9-9.9-15.4-4.8-14.5-9.7-33.3-12.4-45-4.7-20.5-19.6-30.8-48.5-33.6-7.9-.8-22.2-1.2-33.7-1.5-3.6-.1-6.9-.2-9.6-.3-101.5-3.7-200.4-2.5-238.2-1.8-83.1,1.5-112.8,3.3-149.1,12.3-42.2,10.5-62.7,28.7-62.7,55.8s34.3,46.1,52.7,47.8c56,5.3,170.3,4.9,192.6,4.8,48.5-.3,55.9,5.9,67.3,15.3,30.9,25.6,47.3,27.6,67.2,27.6,62.8,0,103,15.1,119.4,44.8,9.8,17.8,6.6,38,2.2,51.8-8.8,27.5-30.5,53.6-53.9,64.8-100.5,48.3-248.7,99.5-364.8,99.5-1.1,0-2.1,0-3.1,0-91.6-.7-199.8-27.1-321.6-78.3-25.6-10.8-58.7-24.2-93.7-38.3-80-32.4-179.6-72.8-243.6-103.6-92.9-44.6-246.1-149.8-229-352.5,3.7-43.5,24.8-153,141.4-231,54.6-36.5,134.1-60.2,218.1-64.9,6.8,0,128.1.4,168.8,2.2h2.3c17,.8,33,1.4,51.1,28.8,8.7,13.1,22.3,26.2,58,23.9h.3c1.6-.2,39.2-3.8,52.2-6.7,13-2.9,26.9-8.4,41.4-28.3,12-16.5,32-16.3,42.7-16.2.7,0,1.3,0,1.8,0,160.2.4,235.7,1.4,323.1,2.6,38.3.5,77.8,1.1,127.8,1.6h.1c6.6,0,26.3,1.2,38.5,6.9,12.7,5.9,30.1,14,48.5,22.6,29.1,13.5,62.1,28.9,82.9,38.7,10.6,5,22.4,11.4,38.5,28.5,4.5,4.8,12.6,14.9,16.4,20,5.1,6.9,5.9,21.3-6.9,41.4-15.2,23.7-32,61.4-25.8,106.3,3.4,24.5,17.6,52.5,47.4,58,23.3,4.3,33.2,1.3,57.4-12.1,1.9-1,3.9-2.2,6-3.5,16.3-9.8,31-17.1,44.6-6.3,5.7,4.5,7.7,20.4-5.9,50.2Z"></path>
</svg>