<svg id="GP_Pits_-_Config" data-name="GP Pits - Config" xmlns="http://www.w3.org/2000/svg" viewBox="0 0 1920 1080">
  <defs>
    <style>
      .cls-1 {
        fill: #fff;
      }
    </style>
  </defs>
  <path class="cls-1" d="M1277.3,1011.96c-16.11,0-36.19-5.02-56.34-23.1-11.95-10.72-32.34-34.45-44.46-54.1l-2.14-3.46c-10.47-16.9-20.36-32.87-36.69-78.3-12.12-33.74-18.33-68.7-19.53-110.03-.59-20.17,1.22-54.74,2.67-82.52.49-9.45.96-18.38,1.25-25.3l.04-.92c1.2-28.23,2.83-66.9-30.65-110.17-11.61-15-34.45-41.51-49.57-59.04-2.68-3.11-5.13-5.95-7.26-8.43-2.41-2.8-6.08-6.98-9.64-11.02-2.79-3.16-5.48-6.22-7.4-8.43-12.08-13.93-26.14-22.19-42.96-25.27-16.18-2.96-39.19-5.84-63.55-8.9-27.25-3.42-58.15-7.29-84.12-11.9-11.33-2.01-38.95-7.44-51.99-11.4-13.39-4.06-37.58-12.23-49.77-16.8-14.49-5.44-39.35-15.92-57.77-23.92-16.53-7.17-22.83-18.52-18.73-33.73,1.15-4.26,6.1-10.68,9.22-14.43,1.4-2.45,2.49-5.77,2.33-7.13-.45-.19-1.71-.59-4.33-.53-17.43.35-44.29,1.84-70.27,3.27-20.07,1.11-39.03,2.16-53.64,2.7-61.23,2.28-181.47,7.89-240.2,11.01-2.22.12-13.53.3-18.26-7.73-2.03-3.45-3.35-9.33,1.92-17.73,6.03-9.62,20.67-19.59,32.43-27.6,3.93-2.67,7.32-4.99,9.71-6.82,9.1-6.99,26.11-18.25,38.54-26.48,3.56-2.35,6.78-4.49,9.42-6.26,27.16-18.2,57.95-36.58,99.01-47.73,29.86-8.11,84.12-20.17,123.74-28.97,9.74-2.16,18.59-4.13,25.98-5.8,12.5-2.81,36.06-7.86,47.57-10.27,5.39-1.13,11.11-2.86,21.81-11.56,19.16-15.57,49.88-34.25,95.28-16.74,2.63,1.01,6.42,2.39,10.43,3.85,5.93,2.15,12.06,4.38,16.01,6,8.52,3.48,13.79,5.07,40.28,3.2,24.32-1.72,57.33-4.23,77.02-6.14,6.63-.64,18.98-1.74,27.15-2.47l3.68-.33c3.86-.35,7.64-.7,11.34-1.04,29.07-2.7,54.18-5.03,85.76-1.86l.65.09c.57.11,57.12,10.88,75.86,14.56,39.46,7.74,117.71,23.47,156.44,31.34,33.23,6.75,88.21,18.36,136.71,28.6,21.65,4.57,41.53,8.77,56.65,11.94,2.29.48,4.95,1.04,7.86,1.66,14.05,2.99,35.29,7.5,46.6,9.05,19.2,2.64,48.87,18.52,46.75,49.9l-.06.91c-.44,6.37-.55,9.85,2.08,13.06,3.96,4.84,14.06,9.24,30.02,13.07,3,.72,6.4,1.57,10.03,2.49,9.16,2.3,19.55,4.91,28.67,6.68,11.2,2.17,37.42,7.24,41.71,48.88,2.16,20.97,5.88,50.42,9.82,81.6,4.91,38.89,10,79.11,12.33,105.36,1.58,17.78-8.76,38.5-35.21,41.95-8.6,1.13-21,.65-31.21-7.99-9.48-8.02-14.63-21.16-15.3-39.06-.15-2.19-2.32-34.23-3.63-57.08-.5-8.67-5.71-16.22-13.62-19.75l-34.69-12.11c-30.49-10.64-61.85-19.92-93.23-27.59l-10.95-2.68c-27.81-7.28-80.29-22.63-110.88-35.11-7.93-3.23-23.08-8.43-30.73-10.29-15.91-3.86-54.76-10.96-71.76,6.45-10.69,10.95-18.22,19.29-37.33,51.21-10.78,18.01-19.42,60.36,16.57,104.88,12.43,15.38,32.99,37.78,49.51,55.77,7.85,8.55,15.26,16.63,20.77,22.82,7.49,8.42,19.25,21.18,30.63,33.53,12.36,13.41,25.14,27.28,33.3,36.5,15.13,17.09,21.6,33.76,19.21,49.54-2.41,15.96-13.76,30.21-33.72,42.36-1.14.81-40.99,30.23-19.15,70.05,15.24,27.78,40.08,75.25,52.16,98.64l.05.1c5.91,11.45,18.22,35.27-10.83,59.21-17.8,14.67-59.82,31.85-77.06,38.55-5.9,2.29-15.92,5.26-28.28,5.26ZM663.1,309.22c-2.01,7.61.69,11.79,10.26,15.94,17.42,7.56,42.83,18.29,57.07,23.64,11.96,4.49,35.7,12.5,48.85,16.49,11.2,3.4,36.61,8.56,50.26,10.98,25.6,4.54,54.97,8.23,83.37,11.79,24.58,3.08,47.79,5.99,64.38,9.03,20.31,3.71,37.19,13.59,51.6,30.19,1.9,2.19,4.57,5.22,7.32,8.35,3.59,4.07,7.3,8.29,9.77,11.16,2.12,2.47,4.57,5.31,7.25,8.41,15.22,17.66,38.22,44.34,50.07,59.66,36.84,47.61,35.07,89.44,33.77,119.99l-.04.92c-.3,7-.76,15.96-1.26,25.45-1.44,27.51-3.22,61.75-2.65,81.3,1.16,39.7,7.09,73.19,18.66,105.39,15.79,43.95,24.84,58.56,35.32,75.47l2.16,3.49c11.06,17.93,30.49,40.75,41.71,50.81,28.38,25.45,55.52,20.34,69.17,15.03,12.93-5.03,56.39-22.49,72.96-36.15,19.7-16.23,12.68-29.83,7.04-40.75l-.05-.1c-12.05-23.33-36.81-70.66-51.98-98.31-11.47-20.92-11.23-42.91.71-63.6,8.78-15.21,21.13-24.86,23.72-26.43,16.04-9.75,25.04-20.46,26.76-31.83,1.69-11.18-3.56-23.75-15.61-37.36-8.06-9.11-20.79-22.92-33.1-36.27-11.95-12.96-23.24-25.21-30.81-33.73-5.42-6.1-12.8-14.14-20.61-22.64-17.53-19.1-37.39-40.74-50.12-56.48-17.51-21.65-27.59-45.82-29.17-69.89-1.24-18.95,2.91-37.95,11.4-52.12,18.92-31.6,26.91-41.12,39.47-53.98,21.58-22.1,63.16-16.09,86.03-10.55,8.64,2.1,24.25,7.47,32.85,10.98,26.48,10.8,75.89,25.81,108.96,34.47l10.77,2.63c31.83,7.78,63.67,17.2,94.61,28l35.48,12.4c13.27,5.76,22.03,18.31,22.86,32.76,1.34,23.47,3.6,56.7,3.62,57.03v.24c.51,13.57,3.87,23.08,10.01,28.28,6.03,5.1,13.97,5.3,19.58,4.56,23.54-3.08,22.42-23.44,22.21-25.75-2.31-25.97-7.37-66.05-12.27-104.81-3.95-31.27-7.68-60.8-9.86-81.94-3.15-30.56-18.46-33.52-29.64-35.69-9.53-1.84-20.12-4.51-29.47-6.85-3.58-.9-6.93-1.74-9.88-2.45-42.32-10.16-44.77-24.31-43.56-41.75l.06-.88c1.6-23.77-24.54-32.76-33.82-34.03-11.85-1.63-32.56-6.03-47.68-9.24-2.9-.62-5.54-1.18-7.82-1.65-15.13-3.17-35.01-7.37-56.67-11.94-48.48-10.24-103.43-21.84-136.6-28.58-38.71-7.87-116.92-23.59-156.34-31.32-17.96-3.52-70.79-13.59-75.45-14.48-29.99-2.98-54.35-.72-82.55,1.9-3.72.35-7.5.7-11.39,1.04l-3.68.33c-8.15.73-20.46,1.83-27.04,2.46-19.84,1.92-53,4.45-77.41,6.17-26.86,1.9-34.92.66-47.01-4.28-3.68-1.51-9.94-3.78-15.46-5.79-4.08-1.48-7.93-2.88-10.7-3.95-37.49-14.45-61.69-.84-80.42,14.38-11.96,9.72-19.92,12.87-28.2,14.6-11.46,2.4-34.92,7.42-47.35,10.22-7.4,1.67-16.26,3.64-26.02,5.8-39.48,8.77-93.54,20.79-123.06,28.81-40.92,11.11-70.28,29.42-94.59,45.71-2.65,1.78-5.91,3.93-9.49,6.3-12.24,8.1-29,19.2-37.68,25.87-2.73,2.1-6.29,4.52-10.41,7.32-10.04,6.84-23.8,16.21-28.17,23.17-.57.91-.91,1.6-1.11,2.09,1.02.29,2.57.49,3.94.42,58.79-3.13,179.15-8.74,240.44-11.02,14.48-.54,33.37-1.58,53.37-2.69,26.11-1.44,53.11-2.94,70.8-3.29,10.74-.23,15.54,4.21,17.68,7.97,5.2,9.15-1.48,20.77-2.87,23.01l-.28.45-.34.41c-2.98,3.55-6.05,7.84-6.65,9.28ZM663.14,309.1s0,0,0,.01c0,0,0,0,0-.01Z"></path>
</svg>