<svg id="EXAMPLE_-_Active" data-name="EXAMPLE - Active" xmlns="http://www.w3.org/2000/svg" viewBox="0 0 1920 1080">
  <defs>
    <style>
      .cls-1 {
        fill: #fff;
      }
    </style>
  </defs>
  <path class="cls-1" d="M847.32,745.18c-89.89,0-164.58-71.46-167.81-162-3.31-92.58,69.31-170.59,161.89-173.9l177.89-6.36c92.59-3.31,170.59,69.31,173.9,161.89,3.31,92.58-69.31,170.58-161.89,173.89l-177.89,6.36c-2.03.07-4.06.11-6.08.11ZM1025.33,468.81c-1.23,0-2.45.02-3.69.07l-177.89,6.36c-56.21,2.01-100.3,49.37-98.29,105.58,2.01,56.2,49.39,100.3,105.58,98.29l177.89-6.36c56.21-2.01,100.3-49.37,98.29-105.58-1.97-54.97-47.32-98.36-101.89-98.36Z"></path>
</svg>