<svg id="EXAMPLE_-_Active" data-name="EXAMPLE - Active" xmlns="http://www.w3.org/2000/svg" viewBox="0 0 1920 1080">
  <defs>
    <style>
      .cls-1 {
        fill: #fff;
      }
    </style>
  </defs>
  <path class="cls-1" d="M1328.6,911.08c-1.67,0-3.31-.03-4.94-.08-32.19-1.12-53.61-10.51-83.25-23.51-8.16-3.58-16.59-7.28-26.21-11.24-47.56-19.58-84.3-29.14-116.71-37.57-28.97-7.54-96.82-25.19-184.54-25.68-41.81-.23-128.81-.71-196.47,24.38l-.41.15c-18.4,6.84-37.58,11.35-57.01,13.42-24.98,2.65-56.06,5.96-85.17-11.35-15.04-8.95-20.92-22.54-25.64-33.47-4.39-10.16-6.64-14.39-11.25-15.33-2.6-.53-4.21-.08-7.6,1.01-4.71,1.5-11.16,3.56-20.33.75-7.77-2.38-17.86-8.72-33.83-37.74-9.86-17.92-15.62-32.84-17.64-38.42h0c-9.72-26.88-16.75-46.29-22.37-72.29-11.17-51.66-20.82-96.27-3.69-146.35,13.28-38.83,34.45-68.13,62.92-87.09,13.22-8.81,21.73-11.12,37.18-15.31,11.16-3.03,26.45-7.18,51.06-15.81,41.38-14.52,62.14-21.8,80.87-33.95,34.27-22.23,59.67-49.52,75.5-81.09l.31-.63c5.54-11.07,20.42-40.6,38.77-75.54,7.16-13.63,14.56-27.72,30.22-32,9.59-2.62,17.69-.89,52.88,15.59,5.74,2.69,10.5,4.98,14.32,6.82,13.93,6.7,15.92,7.54,19.72,7.26,5.84-.42,14.07-7.05,29.33-19.72l9.78-8.13c33.12-27.53,37.38-31.07,47.24-34.6,10.87-3.88,25.39-6.36,57.78,1.71,23.31,5.81,71.14,22.21,129.64,66.75,25.5,19.42,57.24,43.58,87.07,85.12,8.29,11.55,12.94,19.58,16.67,26.03,5.07,8.77,8.14,14.06,17.08,22.54,34.03,32.26,76.9,38.21,93.75,39.28,16.29,1.03,24.66-1.02,36.24-3.85,8.83-2.16,18.84-4.6,34.14-6.12,29.62-2.94,74.4-4.4,121.13,16.85,15.71,7.14,48.4,22.01,71.21,56.6,15.46,23.44,23.41,54.21,23.65,91.44.62,96.68-51.44,175.11-73.67,208.59-8.51,12.82-31.11,46.86-64.62,81.03-39.92,40.7-83.41,69.92-129.25,86.82-26.16,9.65-51.58,14.7-73.86,14.7ZM898.26,792.95c5.38,0,10.33.03,14.79.05,90.23.5,159.77,18.6,189.47,26.32,31.4,8.17,70.47,18.33,119.29,38.43,9.83,4.05,18.75,7.96,26.63,11.42,28.63,12.56,47.55,20.85,75.91,21.84,20.86.72,45.48-3.9,71.19-13.39,68.38-25.22,130.33-79.11,184.13-160.15,23.02-34.67,70.91-106.83,70.33-197.41-.21-33.3-7.06-60.4-20.35-80.56-19.63-29.78-47.71-42.54-62.79-49.4-41.87-19.04-81.25-18.1-110.88-15.15-13.9,1.38-23.18,3.65-31.37,5.65-12.29,3-22.91,5.6-42.24,4.38-19.03-1.2-67.47-7.96-106.25-44.72-11.04-10.47-15.28-17.78-20.63-27.04-3.7-6.39-7.89-13.63-15.61-24.39-28.08-39.11-58.49-62.27-82.93-80.88-55.64-42.36-100.55-57.81-122.36-63.25-27.31-6.81-38.69-4.98-46.22-2.29-6.32,2.26-9.96,5.19-41.19,31.14l-9.79,8.13c-18.15,15.07-28.15,23.38-40.67,24.28-9.32.67-14.49-1.81-29.82-9.19-3.78-1.82-8.49-4.08-14.14-6.73-28.18-13.2-35.86-15.29-39.12-14.41-6.78,1.85-11.24,9.55-17.78,22.01-18.27,34.78-33.08,64.17-38.59,75.19l-.32.64c-17.45,34.8-45.21,64.71-82.5,88.91-20.73,13.45-42.25,21-85.13,36.05-25.29,8.87-40.98,13.13-52.44,16.24-14.72,3.99-20.81,5.65-31.33,12.65-24.72,16.47-43.25,42.34-55.08,76.91-15.33,44.82-6.67,84.9,4.31,135.65,5.34,24.68,12.17,43.57,21.63,69.71h0c1.45,4.01,6.92,18.42,16.36,35.58,9.16,16.65,17.04,26.69,22.17,28.26,3.19.98,4.82.46,8.39-.68,4.16-1.33,9.85-3.15,17.68-1.55,15.3,3.12,20.78,15.8,25.61,27,4.13,9.55,8.03,18.57,17.5,24.21,23.39,13.9,48.52,11.23,72.83,8.65,17.77-1.89,35.32-6.02,52.16-12.27l.43-.16c63.71-23.62,142.19-25.68,188.73-25.68Z"></path>
</svg>