<svg id="EXAMPLE_-_Active" data-name="EXAMPLE - Active" xmlns="http://www.w3.org/2000/svg" viewBox="0 0 1920 1080">
  <defs>
    <style>
      .cls-1 {
        fill: #fff;
      }
    </style>
  </defs>
  <path class="cls-1" d="M1470.41,787c-1.33,0-2.07,0-2.16,0H217.81c-38.71,0-75.13-20.17-95.05-52.64-.46-.75-.92-1.52-1.38-2.29-26.15-44.55-30.43-77.31-14.32-109.53,8.17-16.34,22.32-40.47,32.76-57.84,11.92-19.84,30.07-35.17,51.11-43.17,27.56-10.47,53.91-6.8,76.22,10.6l4.14,3.23c46.68,36.46,90.76,70.9,126.4,41.9,46.96-38.22,27.26-106.05,22.83-119.26-5.37-16.01-28.26-61.53-64.45-128.17-8.07-14.86-7.61-32.33,1.24-46.74,8.85-14.42,24.23-22.72,41.14-22.26l152.57,4.29c18.42.51,36.99-3.26,53.69-10.92,24.91-11.43,63.94-27.39,108.38-38.46,53.87-13.42,102-16.3,143.04-8.54,130.54,24.66,229.61,61.51,341.93,127.19,35.55,20.79,78.75,47.97,124.48,76.74,52.32,32.92,106.43,66.97,150.67,92.31,62.5,35.81,81.21,40.2,86.79,39.63,7.71-.79,15.39-2.34,23.52-3.98,31.57-6.37,67.34-13.58,112.89,24.23l.39.34,59.98,55.24c14.93,13.75,25.92,30.91,31.76,49.62,6.8,21.76,5.57,40.83-3.64,56.66-10.8,18.56-32.25,31.44-63.75,38.28-104.67,22.72-232.58,23.57-250.71,23.57ZM220.99,535.7c-7.37,0-15.03,1.5-22.96,4.52-16.87,6.41-31.45,18.76-41.07,34.77-10.25,17.07-24.13,40.72-32.01,56.49-9.42,18.83-14.28,42.83,13.68,90.46.39.66.78,1.31,1.17,1.96,16.31,26.59,46.2,43.11,78.01,43.11h1250.53c1.46.01,138.4.81,248.55-23.11,25.78-5.6,42.84-15.29,50.71-28.79,6.28-10.78,6.9-24.46,1.84-40.64-4.8-15.36-13.87-29.49-26.22-40.87l-59.79-55.06c-38.09-31.52-66.21-25.85-95.97-19.85-8.24,1.66-16.76,3.38-25.43,4.27-.77.08-1.59.12-2.44.12-30.83,0-114.85-51.43-247.71-135.03-45.59-28.69-88.65-55.78-123.92-76.4-110.2-64.44-207.41-100.6-335.54-124.81-89.62-16.93-197.24,26.2-239.36,45.53-19.47,8.94-41.12,13.34-62.59,12.74l-152.57-4.29c-9.68-.28-18.47,4.49-23.54,12.74-5.06,8.24-5.33,18.24-.71,26.73,25.99,47.85,58.51,109.47,65.84,131.36,14.94,44.59,15.13,105.07-29.17,141.13-21.91,17.83-47.13,20.31-77.11,7.57-24.62-10.46-49.84-30.16-74.23-49.21l-4.13-3.23c-10.41-8.12-21.74-12.19-33.86-12.19Z"></path>
</svg>