<svg id="EXAMPLE_-_Active" data-name="EXAMPLE - Active" xmlns="http://www.w3.org/2000/svg" viewBox="0 0 1920 1080">
  <path d="M855.43896,999.41895c-.61621,0-1.23291-.00488-1.85791-.01367-51.80371-.70996-70.83447-20.6377-78.96045-29.14746-.60938-.6377-1.1626-1.21777-1.67139-1.72754-1.51807-1.51758-6.13818-6.1377-38.04834-62.65234-6.59033-11.67285-18.51025-19.21973-31.88623-20.18945l-266.24854-19.28418c-15.36084-1.1123-27.17236-14.52832-26.32959-29.90625,1.00586-18.35352,14.85889-33.40332,32.93896-35.78418,21.04395-2.77051,34.7583-12.72754,40.76221-29.5957,12.53613-35.21973,35.04883-176.04004,41.65039-218.36035,2.2876-14.66748,10.09961-27.59619,21.99609-36.4043,14.84473-10.99219,37.93311-23.43115,63.65088-20.27393,47.56787,5.8418,99.16943,49.46338,110.71973,66.78955,9.15088,13.72656,27.03271,52.94824,20.56006,80.08203-2.52734,10.59375-8.35059,18.53223-17.30859,23.5957-9.34082,5.2793-20.04492,9.89844-30.396,14.36523-26.95117,11.62988-52.40771,22.61426-52.40771,43.0332,0,28.62402,14.125,48.11719,36.86279,50.87305,11.18799,1.35645,42.50928,2.5332,73.60449,2.06445,54.01416-.81152,62.22266-5.63672,62.98096-6.18457,11.69385-8.44531,29.07861-28.75195,20.06201-51.29395-7.77051-19.42578-80.45898-166.14746-111.35059-228.32764-11.48877-23.12598-3.68604-50.96582,18.15039-64.75684l180.5332-114.02148c7.87109-4.97119,13.09033-13.11328,14.31934-22.33838,1.2334-9.25879-1.68799-18.52246-8.01465-25.41553-30.28809-32.99707-56.37109-51.16504-73.45361-51.16504h-.05811c-5.84473.01416-10.62305,2.15186-14.60791,6.53516-10.6792,11.74707-19.34521,23.64746-27.7251,35.15625-19.83838,27.24365-38.57617,52.97656-77.78271,65.8667-42.21533,13.87891-205.90381,40.31006-274.32031,51.02979-8.75586,1.37549-17.58838-1.6792-23.62891-8.16162-6.04297-6.48486-8.46484-15.51514-6.47852-24.15625l43.81396-190.59082c5.84521-25.42676,28.14746-43.41846,54.23535-43.75293l872.23682-11.18457c.2041-.00342.41016-.00537.61426-.00537,16.88672,0,31.12305,12.50146,33.25195,29.32031l7.78027,61.46533c2.07422,16.38184,12.23047,30.36279,27.16797,37.39941l37.6377,17.72852c19.51074,9.19043,30.14551,28.92432,27.0918,50.27393-3.05273,21.3501-18.79199,37.3125-40.09668,40.66602l-2.60156.40918c-9.79102,1.54102-18.86621,3.17725-27.74414,5.00146-23.53711,4.83789-83.77441,14.29834-134.66309-2.26904-8.66504-2.82129-17.55469-5.90381-26.9668-9.16748-58.2334-20.19189-124.23535-43.0791-168.08008-14.84912-42.30176,27.23584-141.70215,95.13281-182.4751,123.06006-13.30322,9.1123-22.34082,22.48828-25.44873,37.66357-1.15186,5.62354.25732,11.51855,3.86572,16.17383,3.5293,4.55371,8.65625,7.32031,14.06641,7.59082,25.13037,1.25439,51.22021-6.50879,76.44678-14.01807,20.03125-5.9624,38.95215-11.59473,54.96582-11.59473,32.40625,0,144.39551,23.8208,165.65918,58.9873,1.60547,2.65625,3.14355,5.17627,4.61719,7.59033,16.09375,26.37158,24.95996,40.89893,29.79004,80.92529,1.12012,9.27734,1.98438,19.43848,2.89941,30.19629,3.2041,37.67773,6.83691,80.38184,22.83398,98.51172,11.64746,13.19922,44.16895,10.45703,61.63574-.96484,18.7207-12.23926,40.0293-41.66602,40.67676-64.32422.12695-4.44629-.04883-9.75977-.23438-15.38574-.90039-27.18555-2.13281-64.41797,27.69434-77.29883,19.40625-8.37988,68.22461-25.61719,102.35156-4.76465,21.79004,13.31641,46.68652,33.63184,45.7959,72.85742-1.39746,61.3877-8.65332,101.33984-21.56738,118.74512-1.11719,1.50586-2.32227,3.14551-3.60742,4.89355-18.66211,25.38379-53.39844,72.63184-85.9082,75.58789-31.34766,2.84961-122.42969,17.19629-155.95801,24.05371l-1.27246.25977c-29.0752,5.94531-83.19434,17.00977-91.41309,34.71191-1.16406,2.50781-2.49902,5.66602-4.04395,9.32324-10.23633,24.22559-28.63867,67.7666-60.69434,67.77051-2.57422.00098-5.23242-.2793-7.98535-.87402-7.50781-1.61914-13.95312-2.90625-19.63867-4.04297-22.9043-4.57617-33.3584-6.66406-44.42578-17.08203-12.34082-11.61426-20.78906-17.18262-32.72559-15.3916-2.59082.3877-5.18555.86816-7.93262,1.37598-12.39941,2.29395-26.45117,4.8916-40.60742-1.84961l-1.37207-.65527c-14.73145-7.03809-31.42676-15.01367-50.07617-1.33887-4.68457,3.43555-9.36133,7.7666-14.31201,12.35156-17.47949,16.18848-39.17578,36.27832-81.53418,36.28027ZM603.24805,506.58203c-19.43994,0-37.06152,9.83203-48.91797,18.61133-9.55762,7.07715-15.83398,17.46777-17.67334,29.25977-8.50879,54.54883-29.64941,185.2168-42.15576,220.35352-7.39551,20.77734-24.57812,33.50781-49.68994,36.81348-12.83691,1.69043-22.67432,12.40625-23.39111,25.47949-.5166,9.42676,6.72412,17.65137,16.14111,18.33398l266.24854,19.28418c17.06006,1.23535,32.26367,10.8623,40.67041,25.75195,28.92383,51.22559,35.05664,59.0918,36.24756,60.2832.5625.5625,1.1748,1.20312,1.84814,1.9082,7.77979,8.14648,23.96826,25.09863,71.15625,25.74609,39.17871.52734,58.62256-17.46094,75.76709-33.33887,5.18799-4.80566,10.08887-9.34375,15.28125-13.15234,23.95508-17.56934,45.55273-7.25,61.32324.28516l1.3584.64844c10.9375,5.20801,22.08105,3.14746,33.87793.96484,2.7168-.50293,5.52637-1.02246,8.30176-1.43848,17.91602-2.68652,30.04199,7.10449,41.89648,18.26074,8.77344,8.25781,17.01562,9.9043,39.04199,14.30566,5.72461,1.14355,12.21289,2.43945,19.80273,4.07715,28.12695,6.06641,46.40918-37.1875,56.22754-60.42578,1.58594-3.75195,2.95508-6.99316,4.2002-9.6748,9.73926-20.97852,54.33887-31.68652,99.18555-40.85645l1.27148-.25977c33.76074-6.90527,125.54297-21.35645,157.16699-24.23145,27.57715-2.50684,61.66113-48.86816,78.04102-71.14844,1.2959-1.7627,2.51074-3.41406,3.63672-4.93262,7.92773-10.68555,17.72949-38.86621,19.40332-112.44043.60449-26.58105-11.51758-45.48828-40.53418-63.2207-29.73438-18.17383-74.42285-2.22363-92.25391,5.47754-22.94727,9.9082-21.90234,41.47266-21.0625,66.83496.19238,5.7998.37402,11.27832.2373,16.06445-.75586,26.43652-24.21582,59.20117-45.65332,73.2168-21.55762,14.09473-60.22266,16.80762-75.90332-.96484-18.40137-20.85449-22.19727-65.48242-25.54688-104.85645-.90625-10.65918-1.7627-20.72559-2.8584-29.81055-4.54492-37.6543-12.4707-50.6416-28.25977-76.51367-1.48047-2.42578-3.02734-4.95898-4.64062-7.62891-7.47266-12.35791-33.57031-26.04248-71.60059-37.54492-35.02051-10.5918-69.09082-16.13379-84.64551-16.13379-14.41113,0-32.58594,5.41016-51.82715,11.1377-24.89844,7.41162-53.11621,15.80713-80.13477,14.46143-8.61865-.43115-16.71387-4.74609-22.21143-11.83789-5.57617-7.19434-7.74414-16.3501-5.94775-25.12012,3.68311-17.98389,14.34033-33.79932,30.00928-44.53174,40.81201-27.9541,140.31494-95.92139,182.73584-123.23389,21.73047-13.98975,49.75586-18.03906,85.67578-12.38281,30.64551,4.82715,63.22168,16.12207,91.96289,26.08789,9.36133,3.24609,18.20312,6.31201,26.76953,9.10107,48.38867,15.75488,106.36426,6.61523,129.04199,1.9541,9.04688-1.85938,18.28711-3.52539,28.24902-5.09326l2.60156-.40918c16.42773-2.58594,28.56348-14.89404,30.91797-31.35693,2.35449-16.4624-5.8457-31.6792-20.89062-38.76562l-37.6377-17.72852c-18.36035-8.64893-30.84375-25.83398-33.39258-45.96875l-7.78027-61.46582c-1.44824-11.44092-11.18945-19.90088-22.76758-19.69775l-.03027.00049-872.25244,11.18457c-20.99854.26904-38.95068,14.75146-43.65527,35.21826l-43.81396,190.59131c-1.18457,5.15283.20215,10.32568,3.80566,14.19238,3.60059,3.86426,8.65869,5.6123,13.87793,4.79346,68.15137-10.67822,231.13916-36.98535,272.58789-50.6123,35.8374-11.78271,52.74658-35.00391,72.32568-61.89209,8.55322-11.74609,17.39746-23.8916,28.47803-36.08057,6.09473-6.7041,13.73877-10.11377,22.72119-10.13574h.08496c20.78467,0,48.22314,18.41162,81.55664,54.72656,8.53809,9.30225,12.47998,21.80615,10.81494,34.30664-1.66113,12.46631-8.71338,23.46875-19.34912,30.18652l-180.5332,114.021c-17.05029,10.76855-23.14355,32.50586-14.17285,50.56201,38.44385,77.3833,104.07812,210.05127,111.71191,229.13623,11.53467,28.83691-9.55469,53.98438-23.83447,64.29785-2.52686,1.8252-10.2168,7.37891-69.25586,8.26465-31.97998.48242-63.29443-.71191-75.09375-2.14258-28.27148-3.42578-46.53906-27.68164-46.53906-61.79297,0-27.65234,30.01904-40.60547,59.04932-53.13281,10.08545-4.35156,20.51416-8.85254,29.34131-13.8418,6.27539-3.54688,10.20801-8.96777,12.02197-16.57227,5.75195-24.11133-11.92334-60.79395-19.0127-71.42773-10.39648-15.59473-59.33105-56.62109-102.9082-61.97314-2.30225-.28271-4.58643-.41553-6.84619-.41553Z" style="fill: #fff;"></path>
</svg>