<svg id="a" data-name="EXAMPLE - Active" xmlns="http://www.w3.org/2000/svg" viewBox="0 0 1920 1080">
  <defs>
    <style>
      .b {
        fill: #fff;
      }
    </style>
  </defs>
  <path class="b" d="M1534.72,582.44c-34.13-20.85-82.95-3.62-102.35,4.76-29.83,12.88-28.59,50.11-27.69,77.3.19,5.63.36,10.94.23,15.39-.65,22.66-21.96,52.08-40.68,64.32-8.53,5.58-21.36,9.28-33.49,9.65-12.66.39-22.93-2.77-28.15-8.69-16-18.13-19.63-60.83-22.83-98.51-.92-10.76-1.78-20.92-2.9-30.2-4.83-40.03-13.7-54.55-29.79-80.93-1.47-2.41-3.01-4.93-4.62-7.59-21.26-35.17-133.25-58.99-165.66-58.99-16.01,0-34.93,5.63-54.97,11.59-25.23,7.51-51.32,15.27-76.45,14.02-5.41-.27-10.54-3.04-14.07-7.59-3.61-4.66-5.02-10.55-3.87-16.17,3.11-15.18,12.15-28.55,25.45-37.66,40.77-27.93,140.17-95.82,182.48-123.06,43.84-28.23,109.85-5.34,168.08,14.85,9.41,3.26,18.3,6.35,26.97,9.17,50.89,16.57,111.13,7.11,134.66,2.27,8.88-1.82,17.95-3.46,27.74-5l2.6-.41c21.3-3.35,37.04-19.32,40.1-40.67,3.05-21.35-7.58-41.08-27.09-50.27l-37.64-17.73c-14.94-7.04-25.09-21.02-27.17-37.4l-7.78-61.47c-2.13-16.82-16.37-29.32-33.25-29.32-.2,0-.41,0-.61,0l-872.24,11.18c-26.09.33-48.39,18.33-54.24,43.75l-43.81,190.59c-1.99,8.64.44,17.67,6.48,24.16,6.04,6.48,14.87,9.54,23.63,8.16,68.42-10.72,232.1-37.15,274.32-51.03,39.21-12.89,57.94-38.62,77.78-65.87,8.38-11.51,17.05-23.41,27.73-35.16,3.98-4.38,8.76-6.52,14.61-6.54h.06c17.08,0,43.17,18.17,73.45,51.17,6.33,6.89,9.25,16.16,8.01,25.42-1.23,9.23-6.45,17.37-14.32,22.34l-180.53,114.02c-21.84,13.79-29.64,41.63-18.15,64.76,30.89,62.18,103.58,208.9,111.35,228.33,9.02,22.54-8.37,42.85-20.06,51.29-.76.55-8.97,5.37-62.98,6.18-31.1.47-62.42-.71-73.6-2.06-22.74-2.76-36.86-22.25-36.86-50.87,0-20.42,25.46-31.4,52.41-43.03,10.35-4.47,21.06-9.09,30.4-14.37,8.96-5.06,14.78-13,17.31-23.6,6.47-27.13-11.41-66.36-20.56-80.08-11.55-17.33-63.15-60.95-110.72-66.79-25.72-3.16-48.81,9.28-63.65,20.27-11.9,8.81-19.71,21.74-22,36.4-6.6,42.32-29.11,183.14-41.65,218.36-6,16.87-19.72,26.83-40.76,29.6-18.08,2.38-31.93,17.43-32.94,35.78-.84,15.38,10.97,28.79,26.33,29.91l266.25,19.28c13.38.97,25.3,8.52,31.89,20.19,31.91,56.51,36.53,61.13,38.05,62.65.51.51,1.06,1.09,1.67,1.73,8.13,8.51,27.16,28.44,78.96,29.15.62,0,1.24.01,1.86.01,42.36,0,64.05-20.09,81.53-36.28,4.95-4.58,9.63-8.92,14.31-12.35,18.65-13.67,35.34-5.7,50.08,1.34l1.37.66c14.16,6.74,28.21,4.14,40.61,1.85,2.75-.51,5.34-.99,7.93-1.38,11.94-1.79,20.38,3.78,32.73,15.39,11.07,10.42,21.52,12.51,44.43,17.08,5.69,1.14,12.13,2.42,19.64,4.04,2.75.59,5.41.88,7.99.87,32.06,0,50.46-43.54,60.69-67.77,1.54-3.66,2.88-6.82,4.04-9.32,8.22-17.7,64.41-29.19,91.41-34.71l1.27-.26c33.53-6.86,124.61-21.2,155.96-24.05,32.51-2.96,67.25-50.2,85.91-75.59,1.29-1.75,2.49-3.39,3.61-4.89,12.91-17.41,20.17-57.36,21.57-118.75.89-39.23-24.01-59.54-45.8-72.86ZM1569.52,655.05c-1.67,73.57-11.48,101.75-19.4,112.44-1.13,1.52-2.34,3.17-3.64,4.93-16.38,22.28-50.46,68.64-78.04,71.15-31.62,2.88-123.41,17.33-157.17,24.23l-1.27.26c-44.85,9.17-89.45,19.88-99.19,40.86-1.25,2.68-2.61,5.92-4.2,9.67-9.82,23.24-28.1,66.49-56.23,60.43-7.59-1.64-14.08-2.93-19.8-4.08-22.03-4.4-30.27-6.05-39.04-14.31-11.85-11.16-23.98-20.95-41.9-18.26-2.78.42-5.58.94-8.3,1.44-11.8,2.18-22.94,4.24-33.88-.96l-1.36-.65c-15.77-7.54-37.37-17.85-61.32-.29-5.19,3.81-10.09,8.35-15.28,13.15-17.14,15.88-36.59,33.87-75.77,33.34-47.19-.65-63.38-17.6-71.16-25.75-.67-.71-1.29-1.35-1.85-1.91-1.19-1.19-7.32-9.06-36.25-60.28-8.41-14.89-23.61-24.52-40.67-25.75l-266.25-19.28c-9.42-.68-16.66-8.91-16.14-18.33.72-13.07,10.55-23.79,23.39-25.48,25.11-3.31,42.29-16.04,49.69-36.81,12.51-35.14,33.65-165.8,42.16-220.35,1.84-11.79,8.12-22.18,17.67-29.26,11.86-8.78,29.48-18.61,48.92-18.61,2.26,0,4.54.13,6.85.42,43.58,5.35,92.51,46.38,102.91,61.97,7.09,10.63,24.76,47.32,19.01,71.43-1.81,7.6-5.75,13.03-12.02,16.57-8.83,4.99-19.26,9.49-29.34,13.84-29.03,12.53-59.05,25.48-59.05,53.13,0,34.11,18.27,58.37,46.54,61.79,11.8,1.43,43.11,2.62,75.09,2.14,59.04-.89,66.73-6.44,69.26-8.26,14.28-10.31,35.37-35.46,23.83-64.3-7.63-19.08-73.27-151.75-111.71-229.14-8.97-18.06-2.88-39.79,14.17-50.56l180.53-114.02c10.64-6.72,17.69-17.72,19.35-30.19,1.67-12.5-2.28-25-10.81-34.31-33.33-36.31-60.77-54.73-81.56-54.73h-.08c-8.98.02-16.63,3.43-22.72,10.14-11.08,12.19-19.92,24.33-28.48,36.08-19.58,26.89-36.49,50.11-72.33,61.89-41.45,13.63-204.44,39.93-272.59,50.61-5.22.82-10.28-.93-13.88-4.79-3.6-3.87-4.99-9.04-3.81-14.19l43.81-190.59c4.7-20.47,22.66-34.95,43.66-35.22l872.25-11.18h.03c11.58-.2,21.32,8.26,22.77,19.7l7.78,61.47c2.55,20.13,15.03,37.32,33.39,45.97l37.64,17.73c15.04,7.09,23.25,22.3,20.89,38.77-2.35,16.46-14.49,28.77-30.92,31.36l-2.6.41c-9.96,1.57-19.2,3.23-28.25,5.09-22.68,4.66-80.65,13.8-129.04-1.95-8.57-2.79-17.41-5.85-26.77-9.1-28.74-9.97-61.32-21.26-91.96-26.09-35.92-5.66-63.95-1.61-85.68,12.38-42.42,27.31-141.92,95.28-182.74,123.23-15.67,10.73-26.33,26.55-30.01,44.53-1.8,8.77.37,17.93,5.95,25.12,5.5,7.09,13.59,11.41,22.21,11.84,27.02,1.35,55.24-7.05,80.13-14.46,19.24-5.73,37.42-11.14,51.83-11.14,15.55,0,49.62,5.54,84.65,16.13,38.03,11.5,64.13,25.19,71.6,37.54,1.61,2.67,3.16,5.2,4.64,7.63,15.79,25.87,23.71,38.86,28.26,76.51,1.1,9.08,1.95,19.15,2.86,29.81,3.35,39.37,7.15,84,25.55,104.86,15.68,17.77,54.35,15.06,75.9.96,21.44-14.02,44.9-46.78,45.65-73.22.14-4.79-.04-10.26-.24-16.06-.84-25.36-1.88-56.93,21.06-66.83,53.53-23.12,82.35-11.53,92.25-5.48,29.02,17.73,41.14,36.64,40.53,63.22Z"></path>
</svg>