<svg id="EXAMPLE_-_Active" data-name="EXAMPLE - Active" xmlns="http://www.w3.org/2000/svg" viewBox="0 0 1920 1080">
  <path d="M938.70703,845.08594c-2.87744,0-5.7666-.16406-8.65771-.49609-15.39404-1.76953-29.14795-10.87207-36.79297-24.34863l-57.00537-100.49023-.13818-.34668c-7.76709-19.41699-80.45752-166.14258-111.34961-228.3252-11.48975-23.12744-3.68701-50.96777,18.14941-64.75977l180.5332-114.021c7.86963-4.97021,13.08789-13.11084,14.31641-22.33447,1.23389-9.26367-1.68994-18.53223-8.02148-25.42969-30.28369-32.99072-56.36279-51.15479-73.44385-51.15479h-.05811c-5.84521.01416-10.62354,2.15186-14.60791,6.53516-10.6792,11.74707-19.34473,23.64746-27.7251,35.15625-19.83838,27.24365-38.57617,52.97656-77.78271,65.8667-42.21729,13.87939-205.90381,40.31055-274.31934,51.02979-8.75879,1.37354-17.58887-1.68018-23.62939-8.16309-6.04346-6.48486-8.46533-15.51465-6.479-24.15479l43.81396-190.59131c5.84521-25.42627,28.14746-43.41797,54.23535-43.75244l872.25244-11.18457c.20898-.00391.41797-.00586.62695-.00586,16.85742,0,31.09473,12.50195,33.22363,29.3208l7.78027,61.46582c2.07422,16.38135,12.23047,30.3623,27.16797,37.39893l37.6377,17.72852c19.51074,9.19043,30.14551,28.92432,27.0918,50.27441-3.05273,21.34961-18.79199,37.31201-40.09668,40.66553l-2.60156.40918c-9.79102,1.54102-18.86621,3.17725-27.74414,5.00146-23.53711,4.83789-83.77441,14.2998-134.66309-2.26904-8.66504-2.82129-17.55469-5.90381-26.9668-9.16748-58.2334-20.19189-124.23535-43.0791-168.08008-14.84912-42.30176,27.23584-141.70215,95.13281-182.4751,123.06006-13.30273,9.1123-22.34082,22.48828-25.44873,37.66357-1.15186,5.62354.25732,11.51855,3.86572,16.17432,3.5293,4.55322,8.65625,7.31982,14.06641,7.59033,25.13428,1.25684,51.22021-6.5083,76.44678-14.01758,20.03125-5.96338,38.95215-11.59521,54.96582-11.59521,32.40625,0,144.39551,23.8208,165.65918,58.9873,1.60547,2.65625,3.14355,5.17627,4.61719,7.59033,16.06543,26.32471,24.92773,40.84424,29.76465,80.71045.52637,2.65918,4.81738,25.29883,3.00098,48.30078-1.33691,16.93555-8.40625,33.43262-19.9043,46.4541l-44.22949,50.08496c-8.50781,9.63379-20.7334,15.14355-33.57422,15.14453-.08496,0-.16992-.00098-.25488-.00098l-118.02051-.66113h-.23242c-18.06152,0-35.33496,7.69043-47.42578,21.12402l-20.86426,23.18164c-14.50195,16.11426-35.18848,25.2002-56.62305,25.2002ZM846.18262,714.96387l56.6416,99.84961c5.91797,10.43262,16.56494,17.47852,28.48047,18.84863,20.8999,2.4043,41.77832-5.49902,55.84961-21.13477l20.86426-23.18262c14.17285-15.74707,34.42773-24.76465,55.60156-24.76465h.28418l118.03125.66113c.06348,0,.12793.00098.19141.00098,9.68945,0,18.91113-4.15723,25.33008-11.42578l44.22852-50.08496c9.93164-11.24609,16.03418-25.46484,17.18457-40.03809,1.7666-22.375-2.8125-45.23438-2.8584-45.46289l-.07129-.43945c-4.54492-37.6543-12.4707-50.64062-28.25977-76.51367-1.48047-2.42578-3.02734-4.95898-4.64062-7.62891-7.47266-12.35791-33.56934-26.04248-71.60059-37.54492-35.02051-10.5918-69.09082-16.13379-84.64551-16.13379-14.41113,0-32.58594,5.41016-51.82715,11.1377-24.89844,7.41162-53.11719,15.81689-80.13525,14.46143-8.61816-.43115-16.71338-4.74561-22.21045-11.83789-5.57666-7.19385-7.74463-16.3501-5.94824-25.12012,3.68311-17.98389,14.34033-33.79883,30.00928-44.53174,40.81201-27.9541,140.31494-95.92139,182.73584-123.23389,21.73047-13.98975,49.75586-18.03906,85.67578-12.38281,30.64551,4.82715,63.22168,16.12256,91.96289,26.08789,9.36133,3.24609,18.20312,6.31201,26.76953,9.10059,48.38867,15.75537,106.36426,6.61572,129.04199,1.95459,9.04688-1.85938,18.28809-3.52539,28.24902-5.09326l2.60156-.40918c16.42676-2.58594,28.56348-14.89404,30.91797-31.35693,2.35352-16.4624-5.8457-31.67871-20.89062-38.76562l-37.6377-17.72852c-18.36035-8.64941-30.84375-25.83398-33.39258-45.96875l-7.78027-61.46533c-1.44824-11.44141-11.18945-19.90137-22.76758-19.69824l-872.28271,11.18506c-20.99854.26904-38.9502,14.75146-43.65527,35.21826l-43.81396,190.59131c-1.18457,5.15186.20264,10.32471,3.80566,14.19141,3.60059,3.86475,8.6543,5.60889,13.87939,4.79443,68.1499-10.67822,231.13574-36.98486,272.58643-50.61279,35.8374-11.78223,52.74658-35.00342,72.32617-61.8916,8.55273-11.74609,17.39697-23.89209,28.47754-36.08057,6.09424-6.70361,13.73877-10.11377,22.7207-10.13574h.08496c20.7832,0,48.21826,18.40771,81.54736,54.71631,8.54297,9.30664,12.4873,21.81543,10.82178,34.32031-1.66016,12.46533-8.71191,23.46631-19.34619,30.18262l-180.5332,114.02148c-17.05029,10.76855-23.14307,32.50684-14.17188,50.56445,38.21533,76.92383,103.2959,208.47266,111.56787,228.7793Z" style="fill: #fff;"></path>
</svg>