<svg id="EXAMPLE_-_Active" data-name="EXAMPLE - Active" xmlns="http://www.w3.org/2000/svg" viewBox="0 0 1920 1080">
  <path d="M855.43896,999.41895c-.61621,0-1.23291-.00488-1.85791-.0127-51.80371-.71094-70.83447-20.63867-78.96045-29.14844-.60938-.6377-1.1626-1.21777-1.67139-1.72754-1.51807-1.51758-6.1377-6.1377-38.04883-62.6543-6.58984-11.67188-18.50977-19.21777-31.88574-20.1875l-266.24854-19.28418c-15.36084-1.1123-27.17236-14.52832-26.32959-29.90625,1.00586-18.35449,14.85889-33.40332,32.93896-35.78418,21.04395-2.77051,34.7583-12.72754,40.76221-29.5957,12.53662-35.22363,35.05029-176.05078,41.65234-218.37402,2.28613-14.65625,10.09326-27.57715,21.98291-36.38281,14.84766-10.99512,37.94238-23.43555,63.66211-20.28174,47.56787,5.8418,99.16943,49.46338,110.71973,66.78955,9.15088,13.72656,27.03271,52.94824,20.56006,80.08203-2.52734,10.59375-8.35059,18.53223-17.30859,23.5957-9.34082,5.2793-20.04492,9.89844-30.396,14.36523-26.95117,11.62988-52.40771,22.61426-52.40771,43.0332,0,28.51074,14.01416,47.96289,36.59375,50.83984l173.09229,3.26562c13.80176.26074,31.84424,6.56445,41.04053,20.06152l.23828.38281,9.25684,16.31836c5.91797,10.43262,16.56494,17.47852,28.48047,18.84863,20.8999,2.4043,41.77832-5.49902,55.84961-21.13574l20.86426-23.18164c14.17285-15.74707,34.42773-24.76562,55.60156-24.76562.0918,0,.18066.00098.27344.00098l117.9248.66016c2.21387-.08008,35.49707-1.28223,82.01172-2.56348,47.17871-1.29785,71.23828-6.69629,71.47559-6.75098l.15137-.03223c15-3.00391,28.69238-11.62695,28.8291-11.71387,18.66406-12.20312,39.97266-41.62988,40.62012-64.28809.12695-4.44629-.04883-9.75977-.23438-15.38574-.90039-27.18555-2.13281-64.41797,27.69434-77.29883,19.40625-8.37988,68.22461-25.62012,102.35156-4.76465,21.79004,13.31641,46.68652,33.63184,45.7959,72.85742-1.39746,61.3877-8.65332,101.33887-21.56738,118.74512-1.11719,1.50586-2.32227,3.14551-3.60742,4.89355-18.66211,25.38379-53.39844,72.63184-85.9082,75.58789-31.34766,2.84961-122.42969,17.19531-155.95801,24.05371l-1.27246.25977c-29.0752,5.94531-83.19434,17.00977-91.41309,34.71191-1.16406,2.50781-2.49902,5.66602-4.04395,9.32324-10.23633,24.22559-28.63867,67.7666-60.69434,67.77051-2.57422.00098-5.23242-.2793-7.98535-.87402-7.50781-1.61914-13.95312-2.90625-19.63867-4.04297-22.9043-4.57617-33.3584-6.66406-44.42578-17.08203-12.34082-11.61426-20.78906-17.18262-32.72559-15.3916-2.59082.3877-5.18555.86816-7.93262,1.37598-12.39844,2.29395-26.4502,4.8916-40.60742-1.84961l-1.37207-.65527c-14.73145-7.03809-31.42676-15.01367-50.07617-1.33887-4.68457,3.43555-9.36133,7.7666-14.31201,12.35156-17.47949,16.18848-39.17578,36.27832-81.53418,36.28027ZM603.24854,506.58203c-19.44531,0-37.06934,9.83594-48.92871,18.61914-9.55127,7.07373-15.82373,17.45801-17.66162,29.23828-8.50879,54.55176-29.65039,185.22754-42.15723,220.36816-7.39551,20.77637-24.57812,33.50684-49.68994,36.8125-12.83691,1.69043-22.67432,12.40625-23.39111,25.47949-.5166,9.42676,6.72412,17.65137,16.14111,18.33398l266.24854,19.28418c17.06006,1.23633,32.26367,10.8623,40.66943,25.75,28.9248,51.22754,35.05762,59.09375,36.24854,60.28516.5625.5625,1.1748,1.20312,1.84814,1.9082,7.77979,8.14648,23.96826,25.09863,71.15625,25.74512,39.16846.51172,58.62158-17.45996,75.76709-33.33789,5.18799-4.80566,10.08887-9.34375,15.28125-13.15234,23.95508-17.56934,45.55273-7.25,61.32324.28516l1.3584.64844c10.9375,5.20801,22.08105,3.14746,33.87793.96484,2.7168-.50293,5.52637-1.02246,8.30176-1.43848,17.91602-2.68652,30.04199,7.10449,41.89648,18.26074,8.77344,8.25781,17.01562,9.9043,39.04199,14.30566,5.72461,1.14355,12.21289,2.43945,19.80273,4.07715,28.12695,6.06641,46.40918-37.1875,56.22754-60.42578,1.58594-3.75293,2.95508-6.99316,4.2002-9.6748,9.73926-20.97852,54.33887-31.68652,99.18555-40.85547l1.27148-.26074c33.76074-6.90527,125.54297-21.35645,157.16699-24.23145,27.57715-2.50684,61.66113-48.86816,78.04102-71.14844,1.2959-1.7627,2.51074-3.41406,3.63672-4.93262,7.92773-10.68555,17.72949-38.86621,19.40332-112.44043.60449-26.58105-11.51758-45.48828-40.53418-63.2207-29.73145-18.17285-74.42188-2.22363-92.25391,5.47754-22.94727,9.9082-21.90234,41.47266-21.0625,66.83496.19238,5.7998.37402,11.27832.2373,16.06445-.75586,26.43652-24.21582,59.20117-45.65332,73.2168-.67676.43164-15.52051,9.81152-32.55957,13.24121-1.84863.41895-26.03711,5.70117-73.55664,7.00879-47.86133,1.31738-81.69141,2.55273-82.02734,2.56445l-.11621.00488-.11621-.00098-118.03125-.66113c-.07617,0-.15527-.00098-.23242-.00098-18.05176,0-35.32422,7.69043-47.41504,21.125l-20.86426,23.18164c-16.44824,18.27734-40.85547,27.50977-65.28076,24.7041-15.39404-1.76953-29.14795-10.87207-36.79297-24.34863l-9.13965-16.1123c-6.01074-8.64551-19.14355-14.83691-32.03613-15.08008l-173.66064-3.27637-.27783-.03418c-28.27197-3.42578-46.53955-27.68164-46.53955-61.79297,0-27.65234,30.01904-40.60547,59.04932-53.13281,10.08545-4.35156,20.51416-8.85254,29.34131-13.8418,6.27539-3.54688,10.20801-8.96777,12.02197-16.57227,5.75195-24.11133-11.92334-60.79395-19.0127-71.42773-10.39648-15.59473-59.33105-56.62109-102.9082-61.97314-2.30176-.28271-4.58691-.41553-6.8457-.41553Z" style="fill: #fff;"></path>
</svg>