<svg id="EXAMPLE_-_Active" data-name="EXAMPLE - Active" xmlns="http://www.w3.org/2000/svg" viewBox="0 0 1920 1080">
  <path d="M865.37061,489.7168c-2.93604,0-5.89209-.65918-8.68213-1.99316-6.58496-3.14746-10.82715-9.37305-11.34717-16.65332l-5.6626-79.27588c-1.0083-14.12207,4.98828-27.83496,16.0415-36.68164l.5-.35645,67.22559-42.45801c7.86963-4.97021,13.08789-13.11084,14.31641-22.33447,1.23389-9.26318-1.68994-18.53223-8.02148-25.42969-30.28369-32.99023-56.36279-51.15479-73.44385-51.15479h-.05811c-5.84521.01416-10.62354,2.15186-14.60791,6.53516-10.6792,11.74707-19.34473,23.64746-27.7251,35.15625-19.83838,27.24365-38.57617,52.97656-77.78271,65.86621-42.21729,13.87988-205.90381,40.31104-274.31934,51.03027-8.75781,1.375-17.58838-1.67969-23.62939-8.1626-6.04346-6.48535-8.46533-15.51514-6.479-24.15527l43.81396-190.59131c5.84521-25.42627,28.14746-43.41797,54.23535-43.75244l872.25244-11.18457c.20898-.00391.41797-.00586.62695-.00586,16.85742,0,31.09473,12.50195,33.22363,29.32129l7.78027,61.46484c2.07422,16.38135,12.23047,30.36279,27.16797,37.39941l37.6377,17.72852c19.51074,9.19043,30.14551,28.92432,27.0918,50.27393-3.05273,21.3501-18.79199,37.3125-40.09668,40.66602l-2.60156.40918c-9.79102,1.54102-18.86621,3.17725-27.74414,5.00146-21.30664,4.37842-63.70312,10.7251-108.25488,4.05518-12.30566-1.84277-20.99023-12.39795-20.65039-25.09766l.61621-23.02686c.32129-11.99023,9.95703-21.84375,21.9375-22.43262l23.92773-1.1748c9.99414-.49121,17.82227-8.71387,17.82227-18.72021,0-3.16064-1.23242-6.12939-3.47168-8.35986-2.22754-2.22021-5.18457-3.44141-8.3291-3.44141h-.04297l-84.46289.30273c-9.07812.03223-16.55566,6.9082-17.39355,15.99365-1.1416,12.36279-3.42383,23.02344-6.78223,31.68506-5.02637,12.96191-27.01465,21.17822-46.12598,17.23926l-.39062-.0957c-.19434-.05518-19.62695-5.52832-32.05078-5.8999-11.83496-.35449-19.85059-.31592-21.23926-.30225l-1.64648.15088c-11.22559,1.02832-21.82812,1.99951-30.44531,6.26611-4.84668,2.3999-11.68066,6.03516-12.91602,6.69434-42.40723,27.31445-141.57324,95.05176-182.28662,122.93848l-76.12354,52.94092c-3.45312,2.40186-7.41016,3.62158-11.40381,3.62158ZM862.36377,363.88672c-8.08252,6.5918-12.45703,16.7085-11.71338,27.12451l5.6626,79.2749c.23486,3.28467,2.14844,6.09326,5.11963,7.51318,2.96973,1.41992,6.3584,1.14551,9.06152-.73486l76.15576-52.96338c40.84424-27.97607,140.34717-95.94336,182.76807-123.25586l.38379-.22559c.32227-.17188,7.94141-4.24414,13.41797-6.95557,10.4541-5.17627,22.04785-6.23828,34.32324-7.36279l2.31152-.19434c.34668-.00586,8.67285-.0918,21.90527.30469,13.21484.39551,32.19922,5.60547,34.51758,6.25439,14.45898,2.89795,30.72656-3.41699,33.46582-10.47998,2.98926-7.70996,5.03711-17.37256,6.08496-28.71924,1.36133-14.75928,13.53125-25.92969,28.30762-25.98242l84.46289-.30273h.08398c6.07422,0,11.78613,2.35938,16.0918,6.64941,4.3252,4.30957,6.70703,10.0459,6.70703,16.15186,0,15.87891-12.42383,28.92773-28.2832,29.70703l-23.92773,1.1748c-6.26953.30811-11.3125,5.46533-11.48047,11.74023l-.61621,23.02637c-.19238,7.17529,4.44824,12.90137,11.2832,13.9248,42.87695,6.4209,83.82031.27979,104.41113-3.95068,9.04688-1.85938,18.28809-3.52539,28.24902-5.09326l2.60156-.40918c16.42676-2.58594,28.56348-14.89404,30.91797-31.35693,2.35352-16.4624-5.8457-31.67871-20.89062-38.76562l-37.6377-17.72852c-18.36035-8.64893-30.84375-25.83398-33.39258-45.96875l-7.78027-61.46533c-1.44824-11.44141-11.18945-19.90137-22.76758-19.69824l-872.28271,11.18506c-20.99854.26904-38.9502,14.75146-43.65527,35.21826l-43.81396,190.59131c-1.18457,5.15186.20264,10.32422,3.80566,14.19092,3.60059,3.86523,8.6543,5.6123,13.87939,4.79492,68.1499-10.67773,231.13574-36.98486,272.58643-50.6123,35.8374-11.78271,52.74658-35.00391,72.32617-61.89209,8.55273-11.74609,17.39697-23.8916,28.47754-36.08057,6.09424-6.70361,13.73877-10.11377,22.7207-10.13574h.08545c20.7832,0,48.21777,18.40771,81.54688,54.71631,8.54297,9.30615,12.4873,21.81592,10.82178,34.32031-1.66016,12.46533-8.71191,23.46631-19.34619,30.18311l-66.95605,42.2876Z" style="fill: #fff;"></path>
</svg>