<svg id="EXAMPLE_-_Active" data-name="EXAMPLE - Active" xmlns="http://www.w3.org/2000/svg" viewBox="0 0 1920 1080">
  <path d="M865.37061,489.7168c-2.93604,0-5.89209-.65918-8.68213-1.99316-6.58496-3.14746-10.82715-9.37305-11.34717-16.65332l-5.6626-79.27539c-1.0083-14.12256,4.98828-27.83545,16.0415-36.68213l.5-.35645,67.22559-42.45801c7.86963-4.97021,13.08789-13.11084,14.31641-22.33447,1.23389-9.26367-1.68994-18.53223-8.02148-25.42969-30.28369-32.99072-56.36328-51.15479-73.44385-51.15479h-.05811c-5.84473.01416-10.62354,2.15186-14.60791,6.53516-10.6792,11.74707-19.34473,23.64746-27.7251,35.15625-19.83838,27.24365-38.57617,52.97656-77.78271,65.86621-42.21729,13.87988-205.90381,40.31104-274.31982,51.03027-8.75537,1.37354-17.58838-1.68018-23.62939-8.16309-6.04248-6.48486-8.46484-15.51465-6.47852-24.15479l43.81396-190.59131c5.84521-25.42627,28.14746-43.41797,54.23535-43.75244l712.01123-9.12988c6.24707-.08838,12.15332,2.29639,16.60547,6.69189,4.45117,4.39502,6.90332,10.26074,6.90332,16.51709v45.50391c0,16.02197-12.54102,29.06982-28.55078,29.70508l-15.72656.62402c-6.66797.26465-12.05469,5.69678-12.26465,12.3667l-1.23242,39.26465c-.38574,12.3042-3.61816,24.26904-9.3457,34.60156-5.50195,9.92432-11.29883,15.03809-17.72168,15.63232l-1.87695.17236c-11.22559,1.02832-21.82812,1.99951-30.44531,6.26611-4.84863,2.40137-11.67871,6.03418-12.91602,6.69385-42.40625,27.31494-141.57324,95.05225-182.28662,122.93896l-76.12354,52.94092c-3.45312,2.40186-7.41016,3.62158-11.40381,3.62158ZM862.36377,363.88672c-8.08203,6.5918-12.45654,16.70898-11.71289,27.12451l5.66211,79.27539c.23486,3.28418,2.14844,6.09277,5.11963,7.5127,2.96973,1.41992,6.3584,1.14551,9.06152-.73438l76.15576-52.96338c40.84424-27.97656,140.34717-95.94385,182.76807-123.25635l.38379-.22559c.32227-.17188,7.94141-4.24414,13.41797-6.95557,10.4541-5.17627,22.04785-6.23828,34.32324-7.36279l1.86621-.17139c1.81641-.16797,5.16406-2.88672,9.11426-10.01221,4.88379-8.81006,7.64062-19.05029,7.97266-29.61328l1.23242-39.26465c.38965-12.41211,10.41406-22.521,22.82324-23.01318l15.72656-.62402c10.08594-.40039,17.98633-8.62012,17.98633-18.71387v-45.50391c0-3.2915-1.29004-6.37744-3.63184-8.68945-2.3418-2.3125-5.44727-3.55566-8.73633-3.52051l-712.01123,9.12988c-20.99854.26904-38.9502,14.75146-43.65527,35.21826l-43.81396,190.59131c-1.18457,5.15186.20264,10.32422,3.80566,14.19141,3.60107,3.86426,8.66064,5.60693,13.87891,4.79443,68.15039-10.67822,231.13623-36.98486,272.58691-50.6123,35.8374-11.78271,52.74658-35.00391,72.32617-61.89209,8.55273-11.74609,17.39697-23.89209,28.47754-36.08057,6.09473-6.70361,13.73877-10.11377,22.72119-10.13574h.08447c20.7832,0,48.21826,18.40771,81.54736,54.71631,8.54297,9.30615,12.4873,21.81543,10.82178,34.32031-1.66064,12.46533-8.71191,23.46631-19.34619,30.18262l-66.95605,42.28809Z" style="fill: #fff;"></path>
</svg>