<svg id="EXAMPLE_-_Active" data-name="EXAMPLE - Active" xmlns="http://www.w3.org/2000/svg" viewBox="0 0 1920 1080">
  <path d="M457.66309,372.29004c-7.3335,0-14.40137-3.02588-19.48877-8.48584-6.04346-6.48486-8.46533-15.51465-6.479-24.15479l43.81396-190.59131c5.84521-25.42627,28.14746-43.41797,54.23535-43.75244l535.98291-6.87305c8.2373-.13428,16.07227,3.03711,21.96094,8.85059,5.88867,5.81299,9.13086,13.5708,9.13086,21.84473v6.89844c0,17.33545-12.29688,32.58301-29.23828,36.25537l-15.48828,3.35742c-13.74121,2.979-26.24414,10.58496-35.20703,21.41797l-20.82715,25.17383c-10.54492,12.74609-27.75293,18.48438-43.83789,14.62354l-.17285-.04443-87.18311-23.9502c-6.54053-1.79785-13.63428-.37207-18.97412,3.81396l-4.56982,3.58203c-10.53711,11.63623-19.11621,23.41797-27.41504,34.81494-19.83838,27.24365-38.57617,52.97656-77.78271,65.86621-42.21729,13.87988-205.90381,40.31104-274.31934,51.03027-1.38184.2168-2.76611.32275-4.14062.32275ZM1066.12793,109.43018c-.08691,0-.17285.00049-.25977.00146l-535.98291,6.87305c-20.99854.26904-38.95068,14.75146-43.65527,35.21826l-43.81396,190.59131c-1.18457,5.15186.20264,10.32422,3.80566,14.19141,3.60107,3.86426,8.66064,5.60693,13.87891,4.79443,68.15039-10.67773,231.13623-36.98486,272.58691-50.61279,35.8374-11.78223,52.74658-35.00342,72.32568-61.8916,8.55322-11.74609,17.39746-23.89209,28.47803-36.08057l.31201-.34277,5.30127-4.15576c8.06836-6.32471,18.78564-8.47998,28.67432-5.76416l87.09229,23.92529c12.00879,2.85156,24.8418-1.4458,32.71289-10.9585l20.82715-25.17383c10.52637-12.72363,25.21191-21.65771,41.35156-25.15625l15.48828-3.35742c11.91797-2.5835,20.56836-13.31006,20.56836-25.50537v-6.89844c0-5.30908-2.08105-10.28711-5.8584-14.01709-3.7168-3.66895-8.62109-5.68066-13.83301-5.68066Z" style="fill: #fff;"></path>
</svg>