<?xml version="1.0" encoding="UTF-8" standalone="no"?>
<!DOCTYPE svg PUBLIC "-//W3C//DTD SVG 1.1//EN" "http://www.w3.org/Graphics/SVG/1.1/DTD/svg11.dtd">
<svg width="100%" height="100%" viewBox="0 0 256 35" version="1.1" xmlns="http://www.w3.org/2000/svg" xmlns:xlink="http://www.w3.org/1999/xlink" xml:space="preserve" xmlns:serif="http://www.serif.com/" style="fill-rule:evenodd;clip-rule:evenodd;stroke-linejoin:round;stroke-miterlimit:2;">
    <g transform="matrix(0.25105,0,0,0.248139,-142.954,-54.1545)">
        <rect x="767.451" y="252.796" width="24.15" height="78.05" style="fill-rule:nonzero;"/>
    </g>
    <g transform="matrix(0.25105,0,0,0.248139,-142.954,-54.1545)">
        <path d="M903.018,315.679C897.651,310.196 894.734,307.396 892.051,305.413C904.884,302.846 912.468,292.813 912.468,280.679C912.468,258.396 890.068,252.796 872.334,252.796L822.168,252.796L806.418,273.096L874.318,273.096C882.601,273.096 887.618,276.129 887.618,282.196C887.618,287.563 881.784,290.946 874.318,290.946L806.418,290.946L806.418,330.846L830.568,330.846L830.568,310.196L867.668,310.196L885.051,330.846L917.368,330.846L903.018,315.679Z" style="fill-rule:nonzero;"/>
    </g>
    <g transform="matrix(0.25105,0,0,0.248139,-142.954,-54.1545)">
        <path d="M1049.78,330.846L1001.02,260.263C997.634,255.363 992.851,251.513 985.618,251.513C978.034,251.513 973.251,255.713 969.984,260.263L919.934,330.846L948.518,330.846L985.151,279.046L999.151,299.696C1001.72,303.429 1004.98,308.213 1007.08,311.013C1003.35,310.779 997.868,310.779 993.201,310.779L973.601,310.779L959.018,330.846L1049.78,330.846Z" style="fill-rule:nonzero;"/>
    </g>
    <g transform="matrix(0.25105,0,0,0.248139,-142.954,-54.1545)">
        <path d="M1090.97,310.779C1077.78,310.779 1068.1,303.196 1068.1,292.113C1068.1,280.913 1077.9,273.096 1090.97,273.096L1130.17,273.096L1145.68,252.796L1090.97,252.796C1063.9,252.796 1043.95,268.196 1043.95,291.063C1043.95,313.696 1063.9,330.846 1090.97,330.846L1130.17,330.846L1145.68,310.779L1090.97,310.779Z" style="fill-rule:nonzero;"/>
    </g>
    <g transform="matrix(0.25105,0,0,0.248139,-142.954,-54.1545)">
        <path d="M1178.35,310.779L1178.35,300.163L1226.3,300.163L1240.18,282.429L1178.35,282.429L1178.35,273.096L1228.87,273.096L1244.5,252.796L1154.08,252.796L1154.08,330.846L1229.22,330.846L1244.73,310.779L1178.35,310.779Z" style="fill-rule:nonzero;"/>
    </g>
    <g transform="matrix(0.25105,0,0,0.248139,-142.954,-54.1545)">
        <path d="M1347.75,252.796L1323.72,252.796L1323.72,280.446L1277.28,280.446L1277.28,252.796L1253.02,252.796L1253.02,330.846L1277.28,330.846L1277.28,300.746L1323.72,300.746L1323.72,330.846L1347.75,330.846L1347.75,252.796Z" style="fill-rule:nonzero;"/>
    </g>
    <g transform="matrix(0.25105,0,0,0.248139,-142.954,-54.1545)">
        <path d="M1463.95,252.796L1439.68,252.796L1439.68,296.779C1439.68,307.746 1433.85,312.063 1415.3,312.063C1390.45,312.063 1385.55,308.329 1385.55,296.779L1385.55,252.796L1361.52,252.796L1361.52,296.779C1361.52,320.346 1377.73,332.129 1415.3,332.129C1447.73,332.129 1463.95,320.346 1463.95,296.779L1463.95,252.796Z" style="fill-rule:nonzero;"/>
    </g>
    <g transform="matrix(0.25105,0,0,0.248139,-142.954,-54.1545)">
        <path d="M1576.88,291.063C1576.88,268.546 1557.17,252.796 1529.87,252.796L1493,252.796L1477.6,273.096L1529.87,273.096C1542.93,273.096 1552.97,281.146 1552.97,292.113C1552.97,303.313 1543.28,310.779 1529.87,310.779L1501.87,310.779L1501.87,282.196L1477.6,282.196L1477.6,330.846L1529.87,330.846C1556.93,330.846 1576.88,313.696 1576.88,291.063Z" style="fill-rule:nonzero;"/>
    </g>
    <g transform="matrix(0.496813,0,0,0.491053,23.8872,17.82)">
        <g transform="matrix(1,0,0,1,-41.6667,-41.6667)">
            <g transform="matrix(1.41651,0,0,1.41651,0,0)">
                <path d="M57.284,37.476C49.678,40.482 42.642,42.006 36.376,42.006C31.407,42.006 28.074,41.07 26.084,40.512C25.771,40.423 25.5,40.346 25.263,40.287C20.285,39.039 15.952,35.882 13.372,31.624C13.224,31.376 13.09,31.145 12.964,30.915C11.469,28.186 11.526,24.948 13.12,22.257C14.705,19.582 17.609,17.921 20.698,17.921C21.278,17.921 21.86,17.981 22.427,18.097C24.035,18.427 25.531,18.595 26.874,18.595C28.566,18.595 29.657,18.343 30.534,18.141L30.814,18.077C31.094,18.014 31.364,17.91 31.62,17.768L41.45,12.281C41.35,12.198 41.262,12.122 41.153,12.034C36.654,8.413 30.953,6.418 25.1,6.418C20.278,6.418 15.537,7.744 11.394,10.254C5.928,13.564 2.496,17.82 1.209,22.839C1.012,23.43 -3.501,37.429 6.282,48.246C6.754,48.824 9.273,51.066 20.436,52.051C23.15,52.29 25.936,52.412 28.718,52.412L28.719,52.412C34.115,52.412 39.682,51.956 45.268,51.058C49.931,50.308 53.63,49.462 56.263,48.543C56.551,48.442 56.778,48.216 56.878,47.928C56.968,47.671 58.845,42.146 57.538,37.356C57.455,37.397 57.373,37.441 57.284,37.476ZM19.568,47.581C19.238,47.609 18.91,47.622 18.584,47.622C12.54,47.622 7.388,42.972 6.878,36.843C6.832,36.292 7.24,35.809 7.791,35.764C8.353,35.699 8.825,36.126 8.87,36.677C9.316,42.036 14.036,46.035 19.402,45.589C19.966,45.531 20.436,45.952 20.481,46.502C20.526,47.053 20.118,47.536 19.568,47.581Z" style="fill:rgb(14,14,14);fill-rule:nonzero;"/>
                <path d="M58.225,30.065L48.559,14.762C47.852,13.642 46.638,12.973 45.312,12.973C44.686,12.973 44.062,13.129 43.491,13.434L32.595,19.516C32.174,19.75 31.725,19.923 31.261,20.028L30.987,20.091C30.1,20.296 28.893,20.57 27.11,20.592C27.229,28.793 35.844,37.983 44.098,39.263C48.019,38.554 52.178,37.345 56.551,35.617C57.538,35.227 58.298,34.41 58.636,33.374C58.998,32.26 58.849,31.055 58.225,30.065Z" style="fill:rgb(14,14,14);fill-rule:nonzero;"/>
                <path d="M14.841,23.277C13.612,25.353 13.565,27.849 14.719,29.956C14.832,30.163 14.952,30.371 15.083,30.589C17.392,34.4 21.279,37.228 25.748,38.348C26.002,38.411 26.293,38.494 26.624,38.587C28.517,39.118 31.683,40.007 36.376,40.007C37.321,40.007 38.291,39.957 39.274,39.885C31.706,36.536 25.156,28.242 25.106,20.508C24.125,20.423 23.1,20.277 22.027,20.057C19.21,19.479 16.312,20.796 14.841,23.277ZM25.084,27.419C25.084,29.625 23.29,31.419 21.084,31.419C18.878,31.419 17.084,29.625 17.084,27.419C17.084,25.213 18.878,23.419 21.084,23.419C23.29,23.419 25.084,25.213 25.084,27.419Z" style="fill:rgb(14,14,14);fill-rule:nonzero;"/>
            </g>
        </g>
    </g>
</svg>
